<?xml version="1.0" encoding="utf-8" standalone="no"?>
<!DOCTYPE svg PUBLIC "-//W3C//DTD SVG 1.1//EN"
  "http://www.w3.org/Graphics/SVG/1.1/DTD/svg11.dtd">
<svg xmlns:xlink="http://www.w3.org/1999/xlink" width="460.8pt" height="345.6pt" viewBox="0 0 460.8 345.6" xmlns="http://www.w3.org/2000/svg" version="1.1">
 <metadata>
  <rdf:RDF xmlns:dc="http://purl.org/dc/elements/1.1/" xmlns:cc="http://creativecommons.org/ns#" xmlns:rdf="http://www.w3.org/1999/02/22-rdf-syntax-ns#">
   <cc:Work>
    <dc:type rdf:resource="http://purl.org/dc/dcmitype/StillImage"/>
    <dc:date>2024-11-23T15:06:58.183029</dc:date>
    <dc:format>image/svg+xml</dc:format>
    <dc:creator>
     <cc:Agent>
      <dc:title>Matplotlib v3.9.2, https://matplotlib.org/</dc:title>
     </cc:Agent>
    </dc:creator>
   </cc:Work>
  </rdf:RDF>
 </metadata>
 <defs>
  <style type="text/css">*{stroke-linejoin: round; stroke-linecap: butt}</style>
 </defs>
 <g id="figure_1">
  <g id="patch_1">
   <path d="M 0 345.6 
L 460.8 345.6 
L 460.8 0 
L 0 0 
z
" style="fill: #ffffff"/>
  </g>
  <g id="axes_1">
   <g id="patch_2">
    <path d="M 57.6 307.584 
L 414.72 307.584 
L 414.72 41.472 
L 57.6 41.472 
z
" style="fill: #ffffff"/>
   </g>
   <g id="matplotlib.axis_1">
    <g id="xtick_1">
     <g id="line2d_1">
      <path d="M 110.165961 307.584 
L 110.165961 41.472 
" clip-path="url(#pb149602d54)" style="fill: none; stroke-dasharray: 0.8,0.8; stroke-dashoffset: 0; stroke: #808080; stroke-width: 0.4"/>
     </g>
     <g id="line2d_2">
      <defs>
       <path id="ma9914f2c91" d="M 0 0 
L 0 3.5 
" style="stroke: #000000; stroke-width: 1.3"/>
      </defs>
      <g>
       <use xlink:href="#ma9914f2c91" x="110.165961" y="307.584" style="stroke: #000000; stroke-width: 1.3"/>
      </g>
     </g>
     <g id="line2d_3">
      <defs>
       <path id="ma3610bb4d1" d="M 0 0 
L 0 -3.5 
" style="stroke: #000000; stroke-width: 1.3"/>
      </defs>
      <g>
       <use xlink:href="#ma3610bb4d1" x="110.165961" y="41.472" style="stroke: #000000; stroke-width: 1.3"/>
      </g>
     </g>
     <g id="text_1">
      <!-- 0.2 -->
      <g transform="translate(102.214399 322.182437) scale(0.1 -0.1)">
       <defs>
        <path id="DejaVuSans-30" d="M 2034 4250 
Q 1547 4250 1301 3770 
Q 1056 3291 1056 2328 
Q 1056 1369 1301 889 
Q 1547 409 2034 409 
Q 2525 409 2770 889 
Q 3016 1369 3016 2328 
Q 3016 3291 2770 3770 
Q 2525 4250 2034 4250 
z
M 2034 4750 
Q 2819 4750 3233 4129 
Q 3647 3509 3647 2328 
Q 3647 1150 3233 529 
Q 2819 -91 2034 -91 
Q 1250 -91 836 529 
Q 422 1150 422 2328 
Q 422 3509 836 4129 
Q 1250 4750 2034 4750 
z
" transform="scale(0.015625)"/>
        <path id="DejaVuSans-2e" d="M 684 794 
L 1344 794 
L 1344 0 
L 684 0 
L 684 794 
z
" transform="scale(0.015625)"/>
        <path id="DejaVuSans-32" d="M 1228 531 
L 3431 531 
L 3431 0 
L 469 0 
L 469 531 
Q 828 903 1448 1529 
Q 2069 2156 2228 2338 
Q 2531 2678 2651 2914 
Q 2772 3150 2772 3378 
Q 2772 3750 2511 3984 
Q 2250 4219 1831 4219 
Q 1534 4219 1204 4116 
Q 875 4013 500 3803 
L 500 4441 
Q 881 4594 1212 4672 
Q 1544 4750 1819 4750 
Q 2544 4750 2975 4387 
Q 3406 4025 3406 3419 
Q 3406 3131 3298 2873 
Q 3191 2616 2906 2266 
Q 2828 2175 2409 1742 
Q 1991 1309 1228 531 
z
" transform="scale(0.015625)"/>
       </defs>
       <use xlink:href="#DejaVuSans-30"/>
       <use xlink:href="#DejaVuSans-2e" x="63.623047"/>
       <use xlink:href="#DejaVuSans-32" x="95.410156"/>
      </g>
     </g>
     <g id="text_2">
      <!-- 0.2 -->
      <g transform="translate(102.214399 32.392313) scale(0.1 -0.1)">
       <use xlink:href="#DejaVuSans-30"/>
       <use xlink:href="#DejaVuSans-2e" x="63.623047"/>
       <use xlink:href="#DejaVuSans-32" x="95.410156"/>
      </g>
     </g>
    </g>
    <g id="xtick_2">
     <g id="line2d_4">
      <path d="M 175.873413 307.584 
L 175.873413 41.472 
" clip-path="url(#pb149602d54)" style="fill: none; stroke-dasharray: 0.8,0.8; stroke-dashoffset: 0; stroke: #808080; stroke-width: 0.4"/>
     </g>
     <g id="line2d_5">
      <g>
       <use xlink:href="#ma9914f2c91" x="175.873413" y="307.584" style="stroke: #000000; stroke-width: 1.3"/>
      </g>
     </g>
     <g id="line2d_6">
      <g>
       <use xlink:href="#ma3610bb4d1" x="175.873413" y="41.472" style="stroke: #000000; stroke-width: 1.3"/>
      </g>
     </g>
     <g id="text_3">
      <!-- 0.4 -->
      <g transform="translate(167.921851 322.182437) scale(0.1 -0.1)">
       <defs>
        <path id="DejaVuSans-34" d="M 2419 4116 
L 825 1625 
L 2419 1625 
L 2419 4116 
z
M 2253 4666 
L 3047 4666 
L 3047 1625 
L 3713 1625 
L 3713 1100 
L 3047 1100 
L 3047 0 
L 2419 0 
L 2419 1100 
L 313 1100 
L 313 1709 
L 2253 4666 
z
" transform="scale(0.015625)"/>
       </defs>
       <use xlink:href="#DejaVuSans-30"/>
       <use xlink:href="#DejaVuSans-2e" x="63.623047"/>
       <use xlink:href="#DejaVuSans-34" x="95.410156"/>
      </g>
     </g>
     <g id="text_4">
      <!-- 0.4 -->
      <g transform="translate(167.921851 32.392313) scale(0.1 -0.1)">
       <use xlink:href="#DejaVuSans-30"/>
       <use xlink:href="#DejaVuSans-2e" x="63.623047"/>
       <use xlink:href="#DejaVuSans-34" x="95.410156"/>
      </g>
     </g>
    </g>
    <g id="xtick_3">
     <g id="line2d_7">
      <path d="M 241.580865 307.584 
L 241.580865 41.472 
" clip-path="url(#pb149602d54)" style="fill: none; stroke-dasharray: 0.8,0.8; stroke-dashoffset: 0; stroke: #808080; stroke-width: 0.4"/>
     </g>
     <g id="line2d_8">
      <g>
       <use xlink:href="#ma9914f2c91" x="241.580865" y="307.584" style="stroke: #000000; stroke-width: 1.3"/>
      </g>
     </g>
     <g id="line2d_9">
      <g>
       <use xlink:href="#ma3610bb4d1" x="241.580865" y="41.472" style="stroke: #000000; stroke-width: 1.3"/>
      </g>
     </g>
     <g id="text_5">
      <!-- 0.6 -->
      <g transform="translate(233.629302 322.182437) scale(0.1 -0.1)">
       <defs>
        <path id="DejaVuSans-36" d="M 2113 2584 
Q 1688 2584 1439 2293 
Q 1191 2003 1191 1497 
Q 1191 994 1439 701 
Q 1688 409 2113 409 
Q 2538 409 2786 701 
Q 3034 994 3034 1497 
Q 3034 2003 2786 2293 
Q 2538 2584 2113 2584 
z
M 3366 4563 
L 3366 3988 
Q 3128 4100 2886 4159 
Q 2644 4219 2406 4219 
Q 1781 4219 1451 3797 
Q 1122 3375 1075 2522 
Q 1259 2794 1537 2939 
Q 1816 3084 2150 3084 
Q 2853 3084 3261 2657 
Q 3669 2231 3669 1497 
Q 3669 778 3244 343 
Q 2819 -91 2113 -91 
Q 1303 -91 875 529 
Q 447 1150 447 2328 
Q 447 3434 972 4092 
Q 1497 4750 2381 4750 
Q 2619 4750 2861 4703 
Q 3103 4656 3366 4563 
z
" transform="scale(0.015625)"/>
       </defs>
       <use xlink:href="#DejaVuSans-30"/>
       <use xlink:href="#DejaVuSans-2e" x="63.623047"/>
       <use xlink:href="#DejaVuSans-36" x="95.410156"/>
      </g>
     </g>
     <g id="text_6">
      <!-- 0.6 -->
      <g transform="translate(233.629302 32.392313) scale(0.1 -0.1)">
       <use xlink:href="#DejaVuSans-30"/>
       <use xlink:href="#DejaVuSans-2e" x="63.623047"/>
       <use xlink:href="#DejaVuSans-36" x="95.410156"/>
      </g>
     </g>
    </g>
    <g id="xtick_4">
     <g id="line2d_10">
      <path d="M 307.288316 307.584 
L 307.288316 41.472 
" clip-path="url(#pb149602d54)" style="fill: none; stroke-dasharray: 0.8,0.8; stroke-dashoffset: 0; stroke: #808080; stroke-width: 0.4"/>
     </g>
     <g id="line2d_11">
      <g>
       <use xlink:href="#ma9914f2c91" x="307.288316" y="307.584" style="stroke: #000000; stroke-width: 1.3"/>
      </g>
     </g>
     <g id="line2d_12">
      <g>
       <use xlink:href="#ma3610bb4d1" x="307.288316" y="41.472" style="stroke: #000000; stroke-width: 1.3"/>
      </g>
     </g>
     <g id="text_7">
      <!-- 0.8 -->
      <g transform="translate(299.336754 322.182437) scale(0.1 -0.1)">
       <defs>
        <path id="DejaVuSans-38" d="M 2034 2216 
Q 1584 2216 1326 1975 
Q 1069 1734 1069 1313 
Q 1069 891 1326 650 
Q 1584 409 2034 409 
Q 2484 409 2743 651 
Q 3003 894 3003 1313 
Q 3003 1734 2745 1975 
Q 2488 2216 2034 2216 
z
M 1403 2484 
Q 997 2584 770 2862 
Q 544 3141 544 3541 
Q 544 4100 942 4425 
Q 1341 4750 2034 4750 
Q 2731 4750 3128 4425 
Q 3525 4100 3525 3541 
Q 3525 3141 3298 2862 
Q 3072 2584 2669 2484 
Q 3125 2378 3379 2068 
Q 3634 1759 3634 1313 
Q 3634 634 3220 271 
Q 2806 -91 2034 -91 
Q 1263 -91 848 271 
Q 434 634 434 1313 
Q 434 1759 690 2068 
Q 947 2378 1403 2484 
z
M 1172 3481 
Q 1172 3119 1398 2916 
Q 1625 2713 2034 2713 
Q 2441 2713 2670 2916 
Q 2900 3119 2900 3481 
Q 2900 3844 2670 4047 
Q 2441 4250 2034 4250 
Q 1625 4250 1398 4047 
Q 1172 3844 1172 3481 
z
" transform="scale(0.015625)"/>
       </defs>
       <use xlink:href="#DejaVuSans-30"/>
       <use xlink:href="#DejaVuSans-2e" x="63.623047"/>
       <use xlink:href="#DejaVuSans-38" x="95.410156"/>
      </g>
     </g>
     <g id="text_8">
      <!-- 0.8 -->
      <g transform="translate(299.336754 32.392313) scale(0.1 -0.1)">
       <use xlink:href="#DejaVuSans-30"/>
       <use xlink:href="#DejaVuSans-2e" x="63.623047"/>
       <use xlink:href="#DejaVuSans-38" x="95.410156"/>
      </g>
     </g>
    </g>
    <g id="xtick_5">
     <g id="line2d_13">
      <path d="M 372.995768 307.584 
L 372.995768 41.472 
" clip-path="url(#pb149602d54)" style="fill: none; stroke-dasharray: 0.8,0.8; stroke-dashoffset: 0; stroke: #808080; stroke-width: 0.4"/>
     </g>
     <g id="line2d_14">
      <g>
       <use xlink:href="#ma9914f2c91" x="372.995768" y="307.584" style="stroke: #000000; stroke-width: 1.3"/>
      </g>
     </g>
     <g id="line2d_15">
      <g>
       <use xlink:href="#ma3610bb4d1" x="372.995768" y="41.472" style="stroke: #000000; stroke-width: 1.3"/>
      </g>
     </g>
     <g id="text_9">
      <!-- 1.0 -->
      <g transform="translate(365.044206 322.182437) scale(0.1 -0.1)">
       <defs>
        <path id="DejaVuSans-31" d="M 794 531 
L 1825 531 
L 1825 4091 
L 703 3866 
L 703 4441 
L 1819 4666 
L 2450 4666 
L 2450 531 
L 3481 531 
L 3481 0 
L 794 0 
L 794 531 
z
" transform="scale(0.015625)"/>
       </defs>
       <use xlink:href="#DejaVuSans-31"/>
       <use xlink:href="#DejaVuSans-2e" x="63.623047"/>
       <use xlink:href="#DejaVuSans-30" x="95.410156"/>
      </g>
     </g>
     <g id="text_10">
      <!-- 1.0 -->
      <g transform="translate(365.044206 32.392313) scale(0.1 -0.1)">
       <use xlink:href="#DejaVuSans-31"/>
       <use xlink:href="#DejaVuSans-2e" x="63.623047"/>
       <use xlink:href="#DejaVuSans-30" x="95.410156"/>
      </g>
     </g>
    </g>
    <g id="xtick_6">
     <g id="line2d_16">
      <path d="M 77.312236 307.584 
L 77.312236 41.472 
" clip-path="url(#pb149602d54)" style="fill: none; stroke-dasharray: 0.2,0.2; stroke-dashoffset: 0; stroke: #d3d3d3; stroke-width: 0.1"/>
     </g>
     <g id="line2d_17">
      <defs>
       <path id="me2f93d6a07" d="M 0 0 
L 0 2 
" style="stroke: #000000"/>
      </defs>
      <g>
       <use xlink:href="#me2f93d6a07" x="77.312236" y="307.584" style="stroke: #000000"/>
      </g>
     </g>
     <g id="line2d_18">
      <defs>
       <path id="mbfbe54ab49" d="M 0 0 
L 0 -2 
" style="stroke: #000000"/>
      </defs>
      <g>
       <use xlink:href="#mbfbe54ab49" x="77.312236" y="41.472" style="stroke: #000000"/>
      </g>
     </g>
    </g>
    <g id="xtick_7">
     <g id="line2d_19">
      <path d="M 143.019687 307.584 
L 143.019687 41.472 
" clip-path="url(#pb149602d54)" style="fill: none; stroke-dasharray: 0.2,0.2; stroke-dashoffset: 0; stroke: #d3d3d3; stroke-width: 0.1"/>
     </g>
     <g id="line2d_20">
      <g>
       <use xlink:href="#me2f93d6a07" x="143.019687" y="307.584" style="stroke: #000000"/>
      </g>
     </g>
     <g id="line2d_21">
      <g>
       <use xlink:href="#mbfbe54ab49" x="143.019687" y="41.472" style="stroke: #000000"/>
      </g>
     </g>
    </g>
    <g id="xtick_8">
     <g id="line2d_22">
      <path d="M 208.727139 307.584 
L 208.727139 41.472 
" clip-path="url(#pb149602d54)" style="fill: none; stroke-dasharray: 0.2,0.2; stroke-dashoffset: 0; stroke: #d3d3d3; stroke-width: 0.1"/>
     </g>
     <g id="line2d_23">
      <g>
       <use xlink:href="#me2f93d6a07" x="208.727139" y="307.584" style="stroke: #000000"/>
      </g>
     </g>
     <g id="line2d_24">
      <g>
       <use xlink:href="#mbfbe54ab49" x="208.727139" y="41.472" style="stroke: #000000"/>
      </g>
     </g>
    </g>
    <g id="xtick_9">
     <g id="line2d_25">
      <path d="M 274.434591 307.584 
L 274.434591 41.472 
" clip-path="url(#pb149602d54)" style="fill: none; stroke-dasharray: 0.2,0.2; stroke-dashoffset: 0; stroke: #d3d3d3; stroke-width: 0.1"/>
     </g>
     <g id="line2d_26">
      <g>
       <use xlink:href="#me2f93d6a07" x="274.434591" y="307.584" style="stroke: #000000"/>
      </g>
     </g>
     <g id="line2d_27">
      <g>
       <use xlink:href="#mbfbe54ab49" x="274.434591" y="41.472" style="stroke: #000000"/>
      </g>
     </g>
    </g>
    <g id="xtick_10">
     <g id="line2d_28">
      <path d="M 340.142042 307.584 
L 340.142042 41.472 
" clip-path="url(#pb149602d54)" style="fill: none; stroke-dasharray: 0.2,0.2; stroke-dashoffset: 0; stroke: #d3d3d3; stroke-width: 0.1"/>
     </g>
     <g id="line2d_29">
      <g>
       <use xlink:href="#me2f93d6a07" x="340.142042" y="307.584" style="stroke: #000000"/>
      </g>
     </g>
     <g id="line2d_30">
      <g>
       <use xlink:href="#mbfbe54ab49" x="340.142042" y="41.472" style="stroke: #000000"/>
      </g>
     </g>
    </g>
    <g id="xtick_11">
     <g id="line2d_31">
      <path d="M 405.849494 307.584 
L 405.849494 41.472 
" clip-path="url(#pb149602d54)" style="fill: none; stroke-dasharray: 0.2,0.2; stroke-dashoffset: 0; stroke: #d3d3d3; stroke-width: 0.1"/>
     </g>
     <g id="line2d_32">
      <g>
       <use xlink:href="#me2f93d6a07" x="405.849494" y="307.584" style="stroke: #000000"/>
      </g>
     </g>
     <g id="line2d_33">
      <g>
       <use xlink:href="#mbfbe54ab49" x="405.849494" y="41.472" style="stroke: #000000"/>
      </g>
     </g>
    </g>
    <g id="text_11">
     <!-- $B-V$ -->
     <g transform="translate(223.16 335.860562) scale(0.1 -0.1)">
      <defs>
       <path id="DejaVuSans-Oblique-42" d="M 1081 4666 
L 2694 4666 
Q 3350 4666 3675 4422 
Q 4000 4178 4000 3688 
Q 4000 3238 3720 2911 
Q 3441 2584 2988 2516 
Q 3375 2428 3569 2181 
Q 3763 1934 3763 1522 
Q 3763 819 3242 409 
Q 2722 0 1819 0 
L 172 0 
L 1081 4666 
z
M 1234 2228 
L 903 519 
L 1919 519 
Q 2491 519 2800 781 
Q 3109 1044 3109 1522 
Q 3109 1891 2904 2059 
Q 2700 2228 2247 2228 
L 1234 2228 
z
M 1606 4147 
L 1331 2741 
L 2272 2741 
Q 2775 2741 3058 2959 
Q 3341 3178 3341 3566 
Q 3341 3869 3150 4008 
Q 2959 4147 2541 4147 
L 1606 4147 
z
" transform="scale(0.015625)"/>
       <path id="DejaVuSans-2212" d="M 678 2272 
L 4684 2272 
L 4684 1741 
L 678 1741 
L 678 2272 
z
" transform="scale(0.015625)"/>
       <path id="DejaVuSans-Oblique-56" d="M 1319 0 
L 500 4666 
L 1119 4666 
L 1797 653 
L 4063 4666 
L 4750 4666 
L 2053 0 
L 1319 0 
z
" transform="scale(0.015625)"/>
      </defs>
      <use xlink:href="#DejaVuSans-Oblique-42" transform="translate(0 0.09375)"/>
      <use xlink:href="#DejaVuSans-2212" transform="translate(88.085938 0.09375)"/>
      <use xlink:href="#DejaVuSans-Oblique-56" transform="translate(191.357422 0.09375)"/>
     </g>
    </g>
   </g>
   <g id="matplotlib.axis_2">
    <g id="ytick_1">
     <g id="line2d_34">
      <path d="M 57.6 77.533528 
L 414.72 77.533528 
" clip-path="url(#pb149602d54)" style="fill: none; stroke-dasharray: 0.8,0.8; stroke-dashoffset: 0; stroke: #808080; stroke-width: 0.4"/>
     </g>
     <g id="line2d_35">
      <defs>
       <path id="m90abf2d43d" d="M 0 0 
L -3.5 0 
" style="stroke: #000000; stroke-width: 1.3"/>
      </defs>
      <g>
       <use xlink:href="#m90abf2d43d" x="57.6" y="77.533528" style="stroke: #000000; stroke-width: 1.3"/>
      </g>
     </g>
     <g id="line2d_36">
      <defs>
       <path id="md29e6c071f" d="M 0 0 
L 3.5 0 
" style="stroke: #000000; stroke-width: 1.3"/>
      </defs>
      <g>
       <use xlink:href="#md29e6c071f" x="414.72" y="77.533528" style="stroke: #000000; stroke-width: 1.3"/>
      </g>
     </g>
     <g id="text_12">
      <!-- -3.0 -->
      <g transform="translate(31.089063 81.332747) scale(0.1 -0.1)">
       <defs>
        <path id="DejaVuSans-2d" d="M 313 2009 
L 1997 2009 
L 1997 1497 
L 313 1497 
L 313 2009 
z
" transform="scale(0.015625)"/>
        <path id="DejaVuSans-33" d="M 2597 2516 
Q 3050 2419 3304 2112 
Q 3559 1806 3559 1356 
Q 3559 666 3084 287 
Q 2609 -91 1734 -91 
Q 1441 -91 1130 -33 
Q 819 25 488 141 
L 488 750 
Q 750 597 1062 519 
Q 1375 441 1716 441 
Q 2309 441 2620 675 
Q 2931 909 2931 1356 
Q 2931 1769 2642 2001 
Q 2353 2234 1838 2234 
L 1294 2234 
L 1294 2753 
L 1863 2753 
Q 2328 2753 2575 2939 
Q 2822 3125 2822 3475 
Q 2822 3834 2567 4026 
Q 2313 4219 1838 4219 
Q 1578 4219 1281 4162 
Q 984 4106 628 3988 
L 628 4550 
Q 988 4650 1302 4700 
Q 1616 4750 1894 4750 
Q 2613 4750 3031 4423 
Q 3450 4097 3450 3541 
Q 3450 3153 3228 2886 
Q 3006 2619 2597 2516 
z
" transform="scale(0.015625)"/>
       </defs>
       <use xlink:href="#DejaVuSans-2d"/>
       <use xlink:href="#DejaVuSans-33" x="36.083984"/>
       <use xlink:href="#DejaVuSans-2e" x="99.707031"/>
       <use xlink:href="#DejaVuSans-30" x="131.494141"/>
      </g>
     </g>
     <g id="text_13">
      <!-- -3.0 -->
      <g transform="translate(421.72 81.332747) scale(0.1 -0.1)">
       <use xlink:href="#DejaVuSans-2d"/>
       <use xlink:href="#DejaVuSans-33" x="36.083984"/>
       <use xlink:href="#DejaVuSans-2e" x="99.707031"/>
       <use xlink:href="#DejaVuSans-30" x="131.494141"/>
      </g>
     </g>
    </g>
    <g id="ytick_2">
     <g id="line2d_37">
      <path d="M 57.6 143.522168 
L 414.72 143.522168 
" clip-path="url(#pb149602d54)" style="fill: none; stroke-dasharray: 0.8,0.8; stroke-dashoffset: 0; stroke: #808080; stroke-width: 0.4"/>
     </g>
     <g id="line2d_38">
      <g>
       <use xlink:href="#m90abf2d43d" x="57.6" y="143.522168" style="stroke: #000000; stroke-width: 1.3"/>
      </g>
     </g>
     <g id="line2d_39">
      <g>
       <use xlink:href="#md29e6c071f" x="414.72" y="143.522168" style="stroke: #000000; stroke-width: 1.3"/>
      </g>
     </g>
     <g id="text_14">
      <!-- 0.0 -->
      <g transform="translate(34.696875 147.321386) scale(0.1 -0.1)">
       <use xlink:href="#DejaVuSans-30"/>
       <use xlink:href="#DejaVuSans-2e" x="63.623047"/>
       <use xlink:href="#DejaVuSans-30" x="95.410156"/>
      </g>
     </g>
     <g id="text_15">
      <!-- 0.0 -->
      <g transform="translate(421.72 147.321386) scale(0.1 -0.1)">
       <use xlink:href="#DejaVuSans-30"/>
       <use xlink:href="#DejaVuSans-2e" x="63.623047"/>
       <use xlink:href="#DejaVuSans-30" x="95.410156"/>
      </g>
     </g>
    </g>
    <g id="ytick_3">
     <g id="line2d_40">
      <path d="M 57.6 209.510807 
L 414.72 209.510807 
" clip-path="url(#pb149602d54)" style="fill: none; stroke-dasharray: 0.8,0.8; stroke-dashoffset: 0; stroke: #808080; stroke-width: 0.4"/>
     </g>
     <g id="line2d_41">
      <g>
       <use xlink:href="#m90abf2d43d" x="57.6" y="209.510807" style="stroke: #000000; stroke-width: 1.3"/>
      </g>
     </g>
     <g id="line2d_42">
      <g>
       <use xlink:href="#md29e6c071f" x="414.72" y="209.510807" style="stroke: #000000; stroke-width: 1.3"/>
      </g>
     </g>
     <g id="text_16">
      <!-- 3.0 -->
      <g transform="translate(34.696875 213.310026) scale(0.1 -0.1)">
       <use xlink:href="#DejaVuSans-33"/>
       <use xlink:href="#DejaVuSans-2e" x="63.623047"/>
       <use xlink:href="#DejaVuSans-30" x="95.410156"/>
      </g>
     </g>
     <g id="text_17">
      <!-- 3.0 -->
      <g transform="translate(421.72 213.310026) scale(0.1 -0.1)">
       <use xlink:href="#DejaVuSans-33"/>
       <use xlink:href="#DejaVuSans-2e" x="63.623047"/>
       <use xlink:href="#DejaVuSans-30" x="95.410156"/>
      </g>
     </g>
    </g>
    <g id="ytick_4">
     <g id="line2d_43">
      <path d="M 57.6 275.499447 
L 414.72 275.499447 
" clip-path="url(#pb149602d54)" style="fill: none; stroke-dasharray: 0.8,0.8; stroke-dashoffset: 0; stroke: #808080; stroke-width: 0.4"/>
     </g>
     <g id="line2d_44">
      <g>
       <use xlink:href="#m90abf2d43d" x="57.6" y="275.499447" style="stroke: #000000; stroke-width: 1.3"/>
      </g>
     </g>
     <g id="line2d_45">
      <g>
       <use xlink:href="#md29e6c071f" x="414.72" y="275.499447" style="stroke: #000000; stroke-width: 1.3"/>
      </g>
     </g>
     <g id="text_18">
      <!-- 6.0 -->
      <g transform="translate(34.696875 279.298666) scale(0.1 -0.1)">
       <use xlink:href="#DejaVuSans-36"/>
       <use xlink:href="#DejaVuSans-2e" x="63.623047"/>
       <use xlink:href="#DejaVuSans-30" x="95.410156"/>
      </g>
     </g>
     <g id="text_19">
      <!-- 6.0 -->
      <g transform="translate(421.72 279.298666) scale(0.1 -0.1)">
       <use xlink:href="#DejaVuSans-36"/>
       <use xlink:href="#DejaVuSans-2e" x="63.623047"/>
       <use xlink:href="#DejaVuSans-30" x="95.410156"/>
      </g>
     </g>
    </g>
    <g id="ytick_5">
     <g id="line2d_46">
      <path d="M 57.6 44.539208 
L 414.72 44.539208 
" clip-path="url(#pb149602d54)" style="fill: none; stroke-dasharray: 0.2,0.2; stroke-dashoffset: 0; stroke: #d3d3d3; stroke-width: 0.1"/>
     </g>
     <g id="line2d_47">
      <defs>
       <path id="mad574774ee" d="M 0 0 
L -2 0 
" style="stroke: #000000"/>
      </defs>
      <g>
       <use xlink:href="#mad574774ee" x="57.6" y="44.539208" style="stroke: #000000"/>
      </g>
     </g>
     <g id="line2d_48">
      <defs>
       <path id="mcef6e329cd" d="M 0 0 
L 2 0 
" style="stroke: #000000"/>
      </defs>
      <g>
       <use xlink:href="#mcef6e329cd" x="414.72" y="44.539208" style="stroke: #000000"/>
      </g>
     </g>
    </g>
    <g id="ytick_6">
     <g id="line2d_49">
      <path d="M 57.6 51.138072 
L 414.72 51.138072 
" clip-path="url(#pb149602d54)" style="fill: none; stroke-dasharray: 0.2,0.2; stroke-dashoffset: 0; stroke: #d3d3d3; stroke-width: 0.1"/>
     </g>
     <g id="line2d_50">
      <g>
       <use xlink:href="#mad574774ee" x="57.6" y="51.138072" style="stroke: #000000"/>
      </g>
     </g>
     <g id="line2d_51">
      <g>
       <use xlink:href="#mcef6e329cd" x="414.72" y="51.138072" style="stroke: #000000"/>
      </g>
     </g>
    </g>
    <g id="ytick_7">
     <g id="line2d_52">
      <path d="M 57.6 57.736936 
L 414.72 57.736936 
" clip-path="url(#pb149602d54)" style="fill: none; stroke-dasharray: 0.2,0.2; stroke-dashoffset: 0; stroke: #d3d3d3; stroke-width: 0.1"/>
     </g>
     <g id="line2d_53">
      <g>
       <use xlink:href="#mad574774ee" x="57.6" y="57.736936" style="stroke: #000000"/>
      </g>
     </g>
     <g id="line2d_54">
      <g>
       <use xlink:href="#mcef6e329cd" x="414.72" y="57.736936" style="stroke: #000000"/>
      </g>
     </g>
    </g>
    <g id="ytick_8">
     <g id="line2d_55">
      <path d="M 57.6 64.3358 
L 414.72 64.3358 
" clip-path="url(#pb149602d54)" style="fill: none; stroke-dasharray: 0.2,0.2; stroke-dashoffset: 0; stroke: #d3d3d3; stroke-width: 0.1"/>
     </g>
     <g id="line2d_56">
      <g>
       <use xlink:href="#mad574774ee" x="57.6" y="64.3358" style="stroke: #000000"/>
      </g>
     </g>
     <g id="line2d_57">
      <g>
       <use xlink:href="#mcef6e329cd" x="414.72" y="64.3358" style="stroke: #000000"/>
      </g>
     </g>
    </g>
    <g id="ytick_9">
     <g id="line2d_58">
      <path d="M 57.6 70.934664 
L 414.72 70.934664 
" clip-path="url(#pb149602d54)" style="fill: none; stroke-dasharray: 0.2,0.2; stroke-dashoffset: 0; stroke: #d3d3d3; stroke-width: 0.1"/>
     </g>
     <g id="line2d_59">
      <g>
       <use xlink:href="#mad574774ee" x="57.6" y="70.934664" style="stroke: #000000"/>
      </g>
     </g>
     <g id="line2d_60">
      <g>
       <use xlink:href="#mcef6e329cd" x="414.72" y="70.934664" style="stroke: #000000"/>
      </g>
     </g>
    </g>
    <g id="ytick_10">
     <g id="line2d_61">
      <path d="M 57.6 84.132392 
L 414.72 84.132392 
" clip-path="url(#pb149602d54)" style="fill: none; stroke-dasharray: 0.2,0.2; stroke-dashoffset: 0; stroke: #d3d3d3; stroke-width: 0.1"/>
     </g>
     <g id="line2d_62">
      <g>
       <use xlink:href="#mad574774ee" x="57.6" y="84.132392" style="stroke: #000000"/>
      </g>
     </g>
     <g id="line2d_63">
      <g>
       <use xlink:href="#mcef6e329cd" x="414.72" y="84.132392" style="stroke: #000000"/>
      </g>
     </g>
    </g>
    <g id="ytick_11">
     <g id="line2d_64">
      <path d="M 57.6 90.731256 
L 414.72 90.731256 
" clip-path="url(#pb149602d54)" style="fill: none; stroke-dasharray: 0.2,0.2; stroke-dashoffset: 0; stroke: #d3d3d3; stroke-width: 0.1"/>
     </g>
     <g id="line2d_65">
      <g>
       <use xlink:href="#mad574774ee" x="57.6" y="90.731256" style="stroke: #000000"/>
      </g>
     </g>
     <g id="line2d_66">
      <g>
       <use xlink:href="#mcef6e329cd" x="414.72" y="90.731256" style="stroke: #000000"/>
      </g>
     </g>
    </g>
    <g id="ytick_12">
     <g id="line2d_67">
      <path d="M 57.6 97.33012 
L 414.72 97.33012 
" clip-path="url(#pb149602d54)" style="fill: none; stroke-dasharray: 0.2,0.2; stroke-dashoffset: 0; stroke: #d3d3d3; stroke-width: 0.1"/>
     </g>
     <g id="line2d_68">
      <g>
       <use xlink:href="#mad574774ee" x="57.6" y="97.33012" style="stroke: #000000"/>
      </g>
     </g>
     <g id="line2d_69">
      <g>
       <use xlink:href="#mcef6e329cd" x="414.72" y="97.33012" style="stroke: #000000"/>
      </g>
     </g>
    </g>
    <g id="ytick_13">
     <g id="line2d_70">
      <path d="M 57.6 103.928984 
L 414.72 103.928984 
" clip-path="url(#pb149602d54)" style="fill: none; stroke-dasharray: 0.2,0.2; stroke-dashoffset: 0; stroke: #d3d3d3; stroke-width: 0.1"/>
     </g>
     <g id="line2d_71">
      <g>
       <use xlink:href="#mad574774ee" x="57.6" y="103.928984" style="stroke: #000000"/>
      </g>
     </g>
     <g id="line2d_72">
      <g>
       <use xlink:href="#mcef6e329cd" x="414.72" y="103.928984" style="stroke: #000000"/>
      </g>
     </g>
    </g>
    <g id="ytick_14">
     <g id="line2d_73">
      <path d="M 57.6 110.527848 
L 414.72 110.527848 
" clip-path="url(#pb149602d54)" style="fill: none; stroke-dasharray: 0.2,0.2; stroke-dashoffset: 0; stroke: #d3d3d3; stroke-width: 0.1"/>
     </g>
     <g id="line2d_74">
      <g>
       <use xlink:href="#mad574774ee" x="57.6" y="110.527848" style="stroke: #000000"/>
      </g>
     </g>
     <g id="line2d_75">
      <g>
       <use xlink:href="#mcef6e329cd" x="414.72" y="110.527848" style="stroke: #000000"/>
      </g>
     </g>
    </g>
    <g id="ytick_15">
     <g id="line2d_76">
      <path d="M 57.6 117.126712 
L 414.72 117.126712 
" clip-path="url(#pb149602d54)" style="fill: none; stroke-dasharray: 0.2,0.2; stroke-dashoffset: 0; stroke: #d3d3d3; stroke-width: 0.1"/>
     </g>
     <g id="line2d_77">
      <g>
       <use xlink:href="#mad574774ee" x="57.6" y="117.126712" style="stroke: #000000"/>
      </g>
     </g>
     <g id="line2d_78">
      <g>
       <use xlink:href="#mcef6e329cd" x="414.72" y="117.126712" style="stroke: #000000"/>
      </g>
     </g>
    </g>
    <g id="ytick_16">
     <g id="line2d_79">
      <path d="M 57.6 123.725576 
L 414.72 123.725576 
" clip-path="url(#pb149602d54)" style="fill: none; stroke-dasharray: 0.2,0.2; stroke-dashoffset: 0; stroke: #d3d3d3; stroke-width: 0.1"/>
     </g>
     <g id="line2d_80">
      <g>
       <use xlink:href="#mad574774ee" x="57.6" y="123.725576" style="stroke: #000000"/>
      </g>
     </g>
     <g id="line2d_81">
      <g>
       <use xlink:href="#mcef6e329cd" x="414.72" y="123.725576" style="stroke: #000000"/>
      </g>
     </g>
    </g>
    <g id="ytick_17">
     <g id="line2d_82">
      <path d="M 57.6 130.32444 
L 414.72 130.32444 
" clip-path="url(#pb149602d54)" style="fill: none; stroke-dasharray: 0.2,0.2; stroke-dashoffset: 0; stroke: #d3d3d3; stroke-width: 0.1"/>
     </g>
     <g id="line2d_83">
      <g>
       <use xlink:href="#mad574774ee" x="57.6" y="130.32444" style="stroke: #000000"/>
      </g>
     </g>
     <g id="line2d_84">
      <g>
       <use xlink:href="#mcef6e329cd" x="414.72" y="130.32444" style="stroke: #000000"/>
      </g>
     </g>
    </g>
    <g id="ytick_18">
     <g id="line2d_85">
      <path d="M 57.6 136.923304 
L 414.72 136.923304 
" clip-path="url(#pb149602d54)" style="fill: none; stroke-dasharray: 0.2,0.2; stroke-dashoffset: 0; stroke: #d3d3d3; stroke-width: 0.1"/>
     </g>
     <g id="line2d_86">
      <g>
       <use xlink:href="#mad574774ee" x="57.6" y="136.923304" style="stroke: #000000"/>
      </g>
     </g>
     <g id="line2d_87">
      <g>
       <use xlink:href="#mcef6e329cd" x="414.72" y="136.923304" style="stroke: #000000"/>
      </g>
     </g>
    </g>
    <g id="ytick_19">
     <g id="line2d_88">
      <path d="M 57.6 150.121032 
L 414.72 150.121032 
" clip-path="url(#pb149602d54)" style="fill: none; stroke-dasharray: 0.2,0.2; stroke-dashoffset: 0; stroke: #d3d3d3; stroke-width: 0.1"/>
     </g>
     <g id="line2d_89">
      <g>
       <use xlink:href="#mad574774ee" x="57.6" y="150.121032" style="stroke: #000000"/>
      </g>
     </g>
     <g id="line2d_90">
      <g>
       <use xlink:href="#mcef6e329cd" x="414.72" y="150.121032" style="stroke: #000000"/>
      </g>
     </g>
    </g>
    <g id="ytick_20">
     <g id="line2d_91">
      <path d="M 57.6 156.719896 
L 414.72 156.719896 
" clip-path="url(#pb149602d54)" style="fill: none; stroke-dasharray: 0.2,0.2; stroke-dashoffset: 0; stroke: #d3d3d3; stroke-width: 0.1"/>
     </g>
     <g id="line2d_92">
      <g>
       <use xlink:href="#mad574774ee" x="57.6" y="156.719896" style="stroke: #000000"/>
      </g>
     </g>
     <g id="line2d_93">
      <g>
       <use xlink:href="#mcef6e329cd" x="414.72" y="156.719896" style="stroke: #000000"/>
      </g>
     </g>
    </g>
    <g id="ytick_21">
     <g id="line2d_94">
      <path d="M 57.6 163.31876 
L 414.72 163.31876 
" clip-path="url(#pb149602d54)" style="fill: none; stroke-dasharray: 0.2,0.2; stroke-dashoffset: 0; stroke: #d3d3d3; stroke-width: 0.1"/>
     </g>
     <g id="line2d_95">
      <g>
       <use xlink:href="#mad574774ee" x="57.6" y="163.31876" style="stroke: #000000"/>
      </g>
     </g>
     <g id="line2d_96">
      <g>
       <use xlink:href="#mcef6e329cd" x="414.72" y="163.31876" style="stroke: #000000"/>
      </g>
     </g>
    </g>
    <g id="ytick_22">
     <g id="line2d_97">
      <path d="M 57.6 169.917624 
L 414.72 169.917624 
" clip-path="url(#pb149602d54)" style="fill: none; stroke-dasharray: 0.2,0.2; stroke-dashoffset: 0; stroke: #d3d3d3; stroke-width: 0.1"/>
     </g>
     <g id="line2d_98">
      <g>
       <use xlink:href="#mad574774ee" x="57.6" y="169.917624" style="stroke: #000000"/>
      </g>
     </g>
     <g id="line2d_99">
      <g>
       <use xlink:href="#mcef6e329cd" x="414.72" y="169.917624" style="stroke: #000000"/>
      </g>
     </g>
    </g>
    <g id="ytick_23">
     <g id="line2d_100">
      <path d="M 57.6 176.516487 
L 414.72 176.516487 
" clip-path="url(#pb149602d54)" style="fill: none; stroke-dasharray: 0.2,0.2; stroke-dashoffset: 0; stroke: #d3d3d3; stroke-width: 0.1"/>
     </g>
     <g id="line2d_101">
      <g>
       <use xlink:href="#mad574774ee" x="57.6" y="176.516487" style="stroke: #000000"/>
      </g>
     </g>
     <g id="line2d_102">
      <g>
       <use xlink:href="#mcef6e329cd" x="414.72" y="176.516487" style="stroke: #000000"/>
      </g>
     </g>
    </g>
    <g id="ytick_24">
     <g id="line2d_103">
      <path d="M 57.6 183.115351 
L 414.72 183.115351 
" clip-path="url(#pb149602d54)" style="fill: none; stroke-dasharray: 0.2,0.2; stroke-dashoffset: 0; stroke: #d3d3d3; stroke-width: 0.1"/>
     </g>
     <g id="line2d_104">
      <g>
       <use xlink:href="#mad574774ee" x="57.6" y="183.115351" style="stroke: #000000"/>
      </g>
     </g>
     <g id="line2d_105">
      <g>
       <use xlink:href="#mcef6e329cd" x="414.72" y="183.115351" style="stroke: #000000"/>
      </g>
     </g>
    </g>
    <g id="ytick_25">
     <g id="line2d_106">
      <path d="M 57.6 189.714215 
L 414.72 189.714215 
" clip-path="url(#pb149602d54)" style="fill: none; stroke-dasharray: 0.2,0.2; stroke-dashoffset: 0; stroke: #d3d3d3; stroke-width: 0.1"/>
     </g>
     <g id="line2d_107">
      <g>
       <use xlink:href="#mad574774ee" x="57.6" y="189.714215" style="stroke: #000000"/>
      </g>
     </g>
     <g id="line2d_108">
      <g>
       <use xlink:href="#mcef6e329cd" x="414.72" y="189.714215" style="stroke: #000000"/>
      </g>
     </g>
    </g>
    <g id="ytick_26">
     <g id="line2d_109">
      <path d="M 57.6 196.313079 
L 414.72 196.313079 
" clip-path="url(#pb149602d54)" style="fill: none; stroke-dasharray: 0.2,0.2; stroke-dashoffset: 0; stroke: #d3d3d3; stroke-width: 0.1"/>
     </g>
     <g id="line2d_110">
      <g>
       <use xlink:href="#mad574774ee" x="57.6" y="196.313079" style="stroke: #000000"/>
      </g>
     </g>
     <g id="line2d_111">
      <g>
       <use xlink:href="#mcef6e329cd" x="414.72" y="196.313079" style="stroke: #000000"/>
      </g>
     </g>
    </g>
    <g id="ytick_27">
     <g id="line2d_112">
      <path d="M 57.6 202.911943 
L 414.72 202.911943 
" clip-path="url(#pb149602d54)" style="fill: none; stroke-dasharray: 0.2,0.2; stroke-dashoffset: 0; stroke: #d3d3d3; stroke-width: 0.1"/>
     </g>
     <g id="line2d_113">
      <g>
       <use xlink:href="#mad574774ee" x="57.6" y="202.911943" style="stroke: #000000"/>
      </g>
     </g>
     <g id="line2d_114">
      <g>
       <use xlink:href="#mcef6e329cd" x="414.72" y="202.911943" style="stroke: #000000"/>
      </g>
     </g>
    </g>
    <g id="ytick_28">
     <g id="line2d_115">
      <path d="M 57.6 216.109671 
L 414.72 216.109671 
" clip-path="url(#pb149602d54)" style="fill: none; stroke-dasharray: 0.2,0.2; stroke-dashoffset: 0; stroke: #d3d3d3; stroke-width: 0.1"/>
     </g>
     <g id="line2d_116">
      <g>
       <use xlink:href="#mad574774ee" x="57.6" y="216.109671" style="stroke: #000000"/>
      </g>
     </g>
     <g id="line2d_117">
      <g>
       <use xlink:href="#mcef6e329cd" x="414.72" y="216.109671" style="stroke: #000000"/>
      </g>
     </g>
    </g>
    <g id="ytick_29">
     <g id="line2d_118">
      <path d="M 57.6 222.708535 
L 414.72 222.708535 
" clip-path="url(#pb149602d54)" style="fill: none; stroke-dasharray: 0.2,0.2; stroke-dashoffset: 0; stroke: #d3d3d3; stroke-width: 0.1"/>
     </g>
     <g id="line2d_119">
      <g>
       <use xlink:href="#mad574774ee" x="57.6" y="222.708535" style="stroke: #000000"/>
      </g>
     </g>
     <g id="line2d_120">
      <g>
       <use xlink:href="#mcef6e329cd" x="414.72" y="222.708535" style="stroke: #000000"/>
      </g>
     </g>
    </g>
    <g id="ytick_30">
     <g id="line2d_121">
      <path d="M 57.6 229.307399 
L 414.72 229.307399 
" clip-path="url(#pb149602d54)" style="fill: none; stroke-dasharray: 0.2,0.2; stroke-dashoffset: 0; stroke: #d3d3d3; stroke-width: 0.1"/>
     </g>
     <g id="line2d_122">
      <g>
       <use xlink:href="#mad574774ee" x="57.6" y="229.307399" style="stroke: #000000"/>
      </g>
     </g>
     <g id="line2d_123">
      <g>
       <use xlink:href="#mcef6e329cd" x="414.72" y="229.307399" style="stroke: #000000"/>
      </g>
     </g>
    </g>
    <g id="ytick_31">
     <g id="line2d_124">
      <path d="M 57.6 235.906263 
L 414.72 235.906263 
" clip-path="url(#pb149602d54)" style="fill: none; stroke-dasharray: 0.2,0.2; stroke-dashoffset: 0; stroke: #d3d3d3; stroke-width: 0.1"/>
     </g>
     <g id="line2d_125">
      <g>
       <use xlink:href="#mad574774ee" x="57.6" y="235.906263" style="stroke: #000000"/>
      </g>
     </g>
     <g id="line2d_126">
      <g>
       <use xlink:href="#mcef6e329cd" x="414.72" y="235.906263" style="stroke: #000000"/>
      </g>
     </g>
    </g>
    <g id="ytick_32">
     <g id="line2d_127">
      <path d="M 57.6 242.505127 
L 414.72 242.505127 
" clip-path="url(#pb149602d54)" style="fill: none; stroke-dasharray: 0.2,0.2; stroke-dashoffset: 0; stroke: #d3d3d3; stroke-width: 0.1"/>
     </g>
     <g id="line2d_128">
      <g>
       <use xlink:href="#mad574774ee" x="57.6" y="242.505127" style="stroke: #000000"/>
      </g>
     </g>
     <g id="line2d_129">
      <g>
       <use xlink:href="#mcef6e329cd" x="414.72" y="242.505127" style="stroke: #000000"/>
      </g>
     </g>
    </g>
    <g id="ytick_33">
     <g id="line2d_130">
      <path d="M 57.6 249.103991 
L 414.72 249.103991 
" clip-path="url(#pb149602d54)" style="fill: none; stroke-dasharray: 0.2,0.2; stroke-dashoffset: 0; stroke: #d3d3d3; stroke-width: 0.1"/>
     </g>
     <g id="line2d_131">
      <g>
       <use xlink:href="#mad574774ee" x="57.6" y="249.103991" style="stroke: #000000"/>
      </g>
     </g>
     <g id="line2d_132">
      <g>
       <use xlink:href="#mcef6e329cd" x="414.72" y="249.103991" style="stroke: #000000"/>
      </g>
     </g>
    </g>
    <g id="ytick_34">
     <g id="line2d_133">
      <path d="M 57.6 255.702855 
L 414.72 255.702855 
" clip-path="url(#pb149602d54)" style="fill: none; stroke-dasharray: 0.2,0.2; stroke-dashoffset: 0; stroke: #d3d3d3; stroke-width: 0.1"/>
     </g>
     <g id="line2d_134">
      <g>
       <use xlink:href="#mad574774ee" x="57.6" y="255.702855" style="stroke: #000000"/>
      </g>
     </g>
     <g id="line2d_135">
      <g>
       <use xlink:href="#mcef6e329cd" x="414.72" y="255.702855" style="stroke: #000000"/>
      </g>
     </g>
    </g>
    <g id="ytick_35">
     <g id="line2d_136">
      <path d="M 57.6 262.301719 
L 414.72 262.301719 
" clip-path="url(#pb149602d54)" style="fill: none; stroke-dasharray: 0.2,0.2; stroke-dashoffset: 0; stroke: #d3d3d3; stroke-width: 0.1"/>
     </g>
     <g id="line2d_137">
      <g>
       <use xlink:href="#mad574774ee" x="57.6" y="262.301719" style="stroke: #000000"/>
      </g>
     </g>
     <g id="line2d_138">
      <g>
       <use xlink:href="#mcef6e329cd" x="414.72" y="262.301719" style="stroke: #000000"/>
      </g>
     </g>
    </g>
    <g id="ytick_36">
     <g id="line2d_139">
      <path d="M 57.6 268.900583 
L 414.72 268.900583 
" clip-path="url(#pb149602d54)" style="fill: none; stroke-dasharray: 0.2,0.2; stroke-dashoffset: 0; stroke: #d3d3d3; stroke-width: 0.1"/>
     </g>
     <g id="line2d_140">
      <g>
       <use xlink:href="#mad574774ee" x="57.6" y="268.900583" style="stroke: #000000"/>
      </g>
     </g>
     <g id="line2d_141">
      <g>
       <use xlink:href="#mcef6e329cd" x="414.72" y="268.900583" style="stroke: #000000"/>
      </g>
     </g>
    </g>
    <g id="ytick_37">
     <g id="line2d_142">
      <path d="M 57.6 282.098311 
L 414.72 282.098311 
" clip-path="url(#pb149602d54)" style="fill: none; stroke-dasharray: 0.2,0.2; stroke-dashoffset: 0; stroke: #d3d3d3; stroke-width: 0.1"/>
     </g>
     <g id="line2d_143">
      <g>
       <use xlink:href="#mad574774ee" x="57.6" y="282.098311" style="stroke: #000000"/>
      </g>
     </g>
     <g id="line2d_144">
      <g>
       <use xlink:href="#mcef6e329cd" x="414.72" y="282.098311" style="stroke: #000000"/>
      </g>
     </g>
    </g>
    <g id="ytick_38">
     <g id="line2d_145">
      <path d="M 57.6 288.697175 
L 414.72 288.697175 
" clip-path="url(#pb149602d54)" style="fill: none; stroke-dasharray: 0.2,0.2; stroke-dashoffset: 0; stroke: #d3d3d3; stroke-width: 0.1"/>
     </g>
     <g id="line2d_146">
      <g>
       <use xlink:href="#mad574774ee" x="57.6" y="288.697175" style="stroke: #000000"/>
      </g>
     </g>
     <g id="line2d_147">
      <g>
       <use xlink:href="#mcef6e329cd" x="414.72" y="288.697175" style="stroke: #000000"/>
      </g>
     </g>
    </g>
    <g id="ytick_39">
     <g id="line2d_148">
      <path d="M 57.6 295.296039 
L 414.72 295.296039 
" clip-path="url(#pb149602d54)" style="fill: none; stroke-dasharray: 0.2,0.2; stroke-dashoffset: 0; stroke: #d3d3d3; stroke-width: 0.1"/>
     </g>
     <g id="line2d_149">
      <g>
       <use xlink:href="#mad574774ee" x="57.6" y="295.296039" style="stroke: #000000"/>
      </g>
     </g>
     <g id="line2d_150">
      <g>
       <use xlink:href="#mcef6e329cd" x="414.72" y="295.296039" style="stroke: #000000"/>
      </g>
     </g>
    </g>
    <g id="ytick_40">
     <g id="line2d_151">
      <path d="M 57.6 301.894903 
L 414.72 301.894903 
" clip-path="url(#pb149602d54)" style="fill: none; stroke-dasharray: 0.2,0.2; stroke-dashoffset: 0; stroke: #d3d3d3; stroke-width: 0.1"/>
     </g>
     <g id="line2d_152">
      <g>
       <use xlink:href="#mad574774ee" x="57.6" y="301.894903" style="stroke: #000000"/>
      </g>
     </g>
     <g id="line2d_153">
      <g>
       <use xlink:href="#mcef6e329cd" x="414.72" y="301.894903" style="stroke: #000000"/>
      </g>
     </g>
    </g>
    <g id="text_20">
     <!-- $M(V)$ -->
     <g transform="translate(25.009375 186.178) rotate(-90) scale(0.1 -0.1)">
      <defs>
       <path id="DejaVuSans-Oblique-4d" d="M 1081 4666 
L 2028 4666 
L 2572 1522 
L 4378 4666 
L 5350 4666 
L 4441 0 
L 3828 0 
L 4622 4091 
L 2791 897 
L 2175 897 
L 1581 4103 
L 788 0 
L 172 0 
L 1081 4666 
z
" transform="scale(0.015625)"/>
       <path id="DejaVuSans-28" d="M 1984 4856 
Q 1566 4138 1362 3434 
Q 1159 2731 1159 2009 
Q 1159 1288 1364 580 
Q 1569 -128 1984 -844 
L 1484 -844 
Q 1016 -109 783 600 
Q 550 1309 550 2009 
Q 550 2706 781 3412 
Q 1013 4119 1484 4856 
L 1984 4856 
z
" transform="scale(0.015625)"/>
       <path id="DejaVuSans-29" d="M 513 4856 
L 1013 4856 
Q 1481 4119 1714 3412 
Q 1947 2706 1947 2009 
Q 1947 1309 1714 600 
Q 1481 -109 1013 -844 
L 513 -844 
Q 928 -128 1133 580 
Q 1338 1288 1338 2009 
Q 1338 2731 1133 3434 
Q 928 4138 513 4856 
z
" transform="scale(0.015625)"/>
      </defs>
      <use xlink:href="#DejaVuSans-Oblique-4d" transform="translate(0 0.125)"/>
      <use xlink:href="#DejaVuSans-28" transform="translate(86.279297 0.125)"/>
      <use xlink:href="#DejaVuSans-Oblique-56" transform="translate(125.292969 0.125)"/>
      <use xlink:href="#DejaVuSans-29" transform="translate(193.701172 0.125)"/>
     </g>
    </g>
   </g>
   <g id="PathCollection_1">
    <defs>
     <path id="C0_0_6218719b13" d="M 0 1.802776 
C 0.478102 1.802776 0.936686 1.612824 1.274755 1.274755 
C 1.612824 0.936686 1.802776 0.478102 1.802776 -0 
C 1.802776 -0.478102 1.612824 -0.936686 1.274755 -1.274755 
C 0.936686 -1.612824 0.478102 -1.802776 0 -1.802776 
C -0.478102 -1.802776 -0.936686 -1.612824 -1.274755 -1.274755 
C -1.612824 -0.936686 -1.802776 -0.478102 -1.802776 0 
C -1.802776 0.478102 -1.612824 0.936686 -1.274755 1.274755 
C -0.936686 1.612824 -0.478102 1.802776 0 1.802776 
z
"/>
    </defs>
    <g clip-path="url(#pb149602d54)">
     <use xlink:href="#C0_0_6218719b13" x="74.026863" y="52.470107"/>
    </g>
    <g clip-path="url(#pb149602d54)">
     <use xlink:href="#C0_0_6218719b13" x="182.115621" y="205.680357"/>
    </g>
    <g clip-path="url(#pb149602d54)">
     <use xlink:href="#C0_0_6218719b13" x="143.019687" y="232.971436"/>
    </g>
    <g clip-path="url(#pb149602d54)">
     <use xlink:href="#C0_0_6218719b13" x="299.73196" y="263.591574"/>
    </g>
    <g clip-path="url(#pb149602d54)">
     <use xlink:href="#C0_0_6218719b13" x="84.211518" y="159.042883"/>
    </g>
    <g clip-path="url(#pb149602d54)">
     <use xlink:href="#C0_0_6218719b13" x="213.326661" y="219.461149"/>
    </g>
   </g>
   <g id="patch_3">
    <path d="M 57.6 307.584 
L 57.6 41.472 
" style="fill: none; stroke: #000000; stroke-width: 0.8; stroke-linejoin: miter; stroke-linecap: square"/>
   </g>
   <g id="patch_4">
    <path d="M 414.72 307.584 
L 414.72 41.472 
" style="fill: none; stroke: #000000; stroke-width: 0.8; stroke-linejoin: miter; stroke-linecap: square"/>
   </g>
   <g id="patch_5">
    <path d="M 57.6 307.584 
L 414.72 307.584 
" style="fill: none; stroke: #000000; stroke-width: 0.8; stroke-linejoin: miter; stroke-linecap: square"/>
   </g>
   <g id="patch_6">
    <path d="M 57.6 41.472 
L 414.72 41.472 
" style="fill: none; stroke: #000000; stroke-width: 0.8; stroke-linejoin: miter; stroke-linecap: square"/>
   </g>
   <g id="PathCollection_2">
    <path d="M 333.571297 285.7367 
C 333.99062 285.7367 334.392825 285.570101 334.689331 285.273595 
C 334.985837 284.977089 335.152436 284.574884 335.152436 284.155561 
C 335.152436 283.736238 334.985837 283.334033 334.689331 283.037527 
C 334.392825 282.741021 333.99062 282.574422 333.571297 282.574422 
C 333.151974 282.574422 332.749769 282.741021 332.453263 283.037527 
C 332.156757 283.334033 331.990158 283.736238 331.990158 284.155561 
C 331.990158 284.574884 332.156757 284.977089 332.453263 285.273595 
C 332.749769 285.570101 333.151974 285.7367 333.571297 285.7367 
z
" clip-path="url(#pb149602d54)" style="fill: #ff0000"/>
   </g>
   <g id="PathCollection_3">
    <path d="M 366.425023 288.622853 
C 366.844346 288.622853 367.246551 288.456255 367.543057 288.159749 
C 367.839563 287.863243 368.006162 287.461038 368.006162 287.041715 
C 368.006162 286.622392 367.839563 286.220187 367.543057 285.923681 
C 367.246551 285.627175 366.844346 285.460576 366.425023 285.460576 
C 366.0057 285.460576 365.603495 285.627175 365.306989 285.923681 
C 365.010483 286.220187 364.843884 286.622392 364.843884 287.041715 
C 364.843884 287.461038 365.010483 287.863243 365.306989 288.159749 
C 365.603495 288.456255 366.0057 288.622853 366.425023 288.622853 
z
" clip-path="url(#pb149602d54)" style="fill: #ff00ff"/>
   </g>
   <g id="PathCollection_4">
    <path d="M 392.708004 287.787589 
C 393.127327 287.787589 393.529532 287.620991 393.826038 287.324484 
C 394.122544 287.027978 394.289143 286.625773 394.289143 286.20645 
C 394.289143 285.787128 394.122544 285.384923 393.826038 285.088417 
C 393.529532 284.79191 393.127327 284.625312 392.708004 284.625312 
C 392.288681 284.625312 391.886476 284.79191 391.58997 285.088417 
C 391.293464 285.384923 391.126865 285.787128 391.126865 286.20645 
C 391.126865 286.625773 391.293464 287.027978 391.58997 287.324484 
C 391.886476 287.620991 392.288681 287.787589 392.708004 287.787589 
z
" clip-path="url(#pb149602d54)" style="fill: #00ff00"/>
   </g>
   <g id="PathCollection_5">
    <path d="M 258.007728 249.546524 
C 258.427051 249.546524 258.829256 249.379925 259.125762 249.083419 
C 259.422268 248.786913 259.588867 248.384708 259.588867 247.965385 
C 259.588867 247.546062 259.422268 247.143857 259.125762 246.847351 
C 258.829256 246.550845 258.427051 246.384246 258.007728 246.384246 
C 257.588405 246.384246 257.1862 246.550845 256.889694 246.847351 
C 256.593188 247.143857 256.426589 247.546062 256.426589 247.965385 
C 256.426589 248.384708 256.593188 248.786913 256.889694 249.083419 
C 257.1862 249.379925 257.588405 249.546524 258.007728 249.546524 
z
" clip-path="url(#pb149602d54)" style="fill: #00bfff"/>
   </g>
   <g id="PathCollection_6">
    <path d="M 330.285925 286.424937 
C 330.705247 286.424937 331.107452 286.258339 331.403959 285.961833 
C 331.700465 285.665327 331.867063 285.263122 331.867063 284.843799 
C 331.867063 284.424476 331.700465 284.022271 331.403959 283.725765 
C 331.107452 283.429259 330.705247 283.26266 330.285925 283.26266 
C 329.866602 283.26266 329.464397 283.429259 329.167891 283.725765 
C 328.871384 284.022271 328.704786 284.424476 328.704786 284.843799 
C 328.704786 285.263122 328.871384 285.665327 329.167891 285.961833 
C 329.464397 286.258339 329.866602 286.424937 330.285925 286.424937 
z
" clip-path="url(#pb149602d54)" style="fill: #ffd700"/>
   </g>
   <g id="PathCollection_7">
    <path d="M 376.281141 287.672336 
C 376.700464 287.672336 377.102669 287.505738 377.399175 287.209232 
C 377.695681 286.912726 377.86228 286.510521 377.86228 286.091198 
C 377.86228 285.671875 377.695681 285.26967 377.399175 284.973164 
C 377.102669 284.676658 376.700464 284.510059 376.281141 284.510059 
C 375.861818 284.510059 375.459613 284.676658 375.163107 284.973164 
C 374.866601 285.26967 374.700002 285.671875 374.700002 286.091198 
C 374.700002 286.510521 374.866601 286.912726 375.163107 287.209232 
C 375.459613 287.505738 375.861818 287.672336 376.281141 287.672336 
z
" clip-path="url(#pb149602d54)" style="fill: #d2691e"/>
   </g>
   <g id="text_21">
    <!-- Supplement (query around): 6 estrelas em um raio de 1018.3299 parsecs -->
    <g transform="translate(97.564102 8.445801) scale(0.075 -0.075)">
     <defs>
      <path id="DejaVuSans-53" d="M 3425 4513 
L 3425 3897 
Q 3066 4069 2747 4153 
Q 2428 4238 2131 4238 
Q 1616 4238 1336 4038 
Q 1056 3838 1056 3469 
Q 1056 3159 1242 3001 
Q 1428 2844 1947 2747 
L 2328 2669 
Q 3034 2534 3370 2195 
Q 3706 1856 3706 1288 
Q 3706 609 3251 259 
Q 2797 -91 1919 -91 
Q 1588 -91 1214 -16 
Q 841 59 441 206 
L 441 856 
Q 825 641 1194 531 
Q 1563 422 1919 422 
Q 2459 422 2753 634 
Q 3047 847 3047 1241 
Q 3047 1584 2836 1778 
Q 2625 1972 2144 2069 
L 1759 2144 
Q 1053 2284 737 2584 
Q 422 2884 422 3419 
Q 422 4038 858 4394 
Q 1294 4750 2059 4750 
Q 2388 4750 2728 4690 
Q 3069 4631 3425 4513 
z
" transform="scale(0.015625)"/>
      <path id="DejaVuSans-75" d="M 544 1381 
L 544 3500 
L 1119 3500 
L 1119 1403 
Q 1119 906 1312 657 
Q 1506 409 1894 409 
Q 2359 409 2629 706 
Q 2900 1003 2900 1516 
L 2900 3500 
L 3475 3500 
L 3475 0 
L 2900 0 
L 2900 538 
Q 2691 219 2414 64 
Q 2138 -91 1772 -91 
Q 1169 -91 856 284 
Q 544 659 544 1381 
z
M 1991 3584 
L 1991 3584 
z
" transform="scale(0.015625)"/>
      <path id="DejaVuSans-70" d="M 1159 525 
L 1159 -1331 
L 581 -1331 
L 581 3500 
L 1159 3500 
L 1159 2969 
Q 1341 3281 1617 3432 
Q 1894 3584 2278 3584 
Q 2916 3584 3314 3078 
Q 3713 2572 3713 1747 
Q 3713 922 3314 415 
Q 2916 -91 2278 -91 
Q 1894 -91 1617 61 
Q 1341 213 1159 525 
z
M 3116 1747 
Q 3116 2381 2855 2742 
Q 2594 3103 2138 3103 
Q 1681 3103 1420 2742 
Q 1159 2381 1159 1747 
Q 1159 1113 1420 752 
Q 1681 391 2138 391 
Q 2594 391 2855 752 
Q 3116 1113 3116 1747 
z
" transform="scale(0.015625)"/>
      <path id="DejaVuSans-6c" d="M 603 4863 
L 1178 4863 
L 1178 0 
L 603 0 
L 603 4863 
z
" transform="scale(0.015625)"/>
      <path id="DejaVuSans-65" d="M 3597 1894 
L 3597 1613 
L 953 1613 
Q 991 1019 1311 708 
Q 1631 397 2203 397 
Q 2534 397 2845 478 
Q 3156 559 3463 722 
L 3463 178 
Q 3153 47 2828 -22 
Q 2503 -91 2169 -91 
Q 1331 -91 842 396 
Q 353 884 353 1716 
Q 353 2575 817 3079 
Q 1281 3584 2069 3584 
Q 2775 3584 3186 3129 
Q 3597 2675 3597 1894 
z
M 3022 2063 
Q 3016 2534 2758 2815 
Q 2500 3097 2075 3097 
Q 1594 3097 1305 2825 
Q 1016 2553 972 2059 
L 3022 2063 
z
" transform="scale(0.015625)"/>
      <path id="DejaVuSans-6d" d="M 3328 2828 
Q 3544 3216 3844 3400 
Q 4144 3584 4550 3584 
Q 5097 3584 5394 3201 
Q 5691 2819 5691 2113 
L 5691 0 
L 5113 0 
L 5113 2094 
Q 5113 2597 4934 2840 
Q 4756 3084 4391 3084 
Q 3944 3084 3684 2787 
Q 3425 2491 3425 1978 
L 3425 0 
L 2847 0 
L 2847 2094 
Q 2847 2600 2669 2842 
Q 2491 3084 2119 3084 
Q 1678 3084 1418 2786 
Q 1159 2488 1159 1978 
L 1159 0 
L 581 0 
L 581 3500 
L 1159 3500 
L 1159 2956 
Q 1356 3278 1631 3431 
Q 1906 3584 2284 3584 
Q 2666 3584 2933 3390 
Q 3200 3197 3328 2828 
z
" transform="scale(0.015625)"/>
      <path id="DejaVuSans-6e" d="M 3513 2113 
L 3513 0 
L 2938 0 
L 2938 2094 
Q 2938 2591 2744 2837 
Q 2550 3084 2163 3084 
Q 1697 3084 1428 2787 
Q 1159 2491 1159 1978 
L 1159 0 
L 581 0 
L 581 3500 
L 1159 3500 
L 1159 2956 
Q 1366 3272 1645 3428 
Q 1925 3584 2291 3584 
Q 2894 3584 3203 3211 
Q 3513 2838 3513 2113 
z
" transform="scale(0.015625)"/>
      <path id="DejaVuSans-74" d="M 1172 4494 
L 1172 3500 
L 2356 3500 
L 2356 3053 
L 1172 3053 
L 1172 1153 
Q 1172 725 1289 603 
Q 1406 481 1766 481 
L 2356 481 
L 2356 0 
L 1766 0 
Q 1100 0 847 248 
Q 594 497 594 1153 
L 594 3053 
L 172 3053 
L 172 3500 
L 594 3500 
L 594 4494 
L 1172 4494 
z
" transform="scale(0.015625)"/>
      <path id="DejaVuSans-20" transform="scale(0.015625)"/>
      <path id="DejaVuSans-71" d="M 947 1747 
Q 947 1113 1208 752 
Q 1469 391 1925 391 
Q 2381 391 2643 752 
Q 2906 1113 2906 1747 
Q 2906 2381 2643 2742 
Q 2381 3103 1925 3103 
Q 1469 3103 1208 2742 
Q 947 2381 947 1747 
z
M 2906 525 
Q 2725 213 2448 61 
Q 2172 -91 1784 -91 
Q 1150 -91 751 415 
Q 353 922 353 1747 
Q 353 2572 751 3078 
Q 1150 3584 1784 3584 
Q 2172 3584 2448 3432 
Q 2725 3281 2906 2969 
L 2906 3500 
L 3481 3500 
L 3481 -1331 
L 2906 -1331 
L 2906 525 
z
" transform="scale(0.015625)"/>
      <path id="DejaVuSans-72" d="M 2631 2963 
Q 2534 3019 2420 3045 
Q 2306 3072 2169 3072 
Q 1681 3072 1420 2755 
Q 1159 2438 1159 1844 
L 1159 0 
L 581 0 
L 581 3500 
L 1159 3500 
L 1159 2956 
Q 1341 3275 1631 3429 
Q 1922 3584 2338 3584 
Q 2397 3584 2469 3576 
Q 2541 3569 2628 3553 
L 2631 2963 
z
" transform="scale(0.015625)"/>
      <path id="DejaVuSans-79" d="M 2059 -325 
Q 1816 -950 1584 -1140 
Q 1353 -1331 966 -1331 
L 506 -1331 
L 506 -850 
L 844 -850 
Q 1081 -850 1212 -737 
Q 1344 -625 1503 -206 
L 1606 56 
L 191 3500 
L 800 3500 
L 1894 763 
L 2988 3500 
L 3597 3500 
L 2059 -325 
z
" transform="scale(0.015625)"/>
      <path id="DejaVuSans-61" d="M 2194 1759 
Q 1497 1759 1228 1600 
Q 959 1441 959 1056 
Q 959 750 1161 570 
Q 1363 391 1709 391 
Q 2188 391 2477 730 
Q 2766 1069 2766 1631 
L 2766 1759 
L 2194 1759 
z
M 3341 1997 
L 3341 0 
L 2766 0 
L 2766 531 
Q 2569 213 2275 61 
Q 1981 -91 1556 -91 
Q 1019 -91 701 211 
Q 384 513 384 1019 
Q 384 1609 779 1909 
Q 1175 2209 1959 2209 
L 2766 2209 
L 2766 2266 
Q 2766 2663 2505 2880 
Q 2244 3097 1772 3097 
Q 1472 3097 1187 3025 
Q 903 2953 641 2809 
L 641 3341 
Q 956 3463 1253 3523 
Q 1550 3584 1831 3584 
Q 2591 3584 2966 3190 
Q 3341 2797 3341 1997 
z
" transform="scale(0.015625)"/>
      <path id="DejaVuSans-6f" d="M 1959 3097 
Q 1497 3097 1228 2736 
Q 959 2375 959 1747 
Q 959 1119 1226 758 
Q 1494 397 1959 397 
Q 2419 397 2687 759 
Q 2956 1122 2956 1747 
Q 2956 2369 2687 2733 
Q 2419 3097 1959 3097 
z
M 1959 3584 
Q 2709 3584 3137 3096 
Q 3566 2609 3566 1747 
Q 3566 888 3137 398 
Q 2709 -91 1959 -91 
Q 1206 -91 779 398 
Q 353 888 353 1747 
Q 353 2609 779 3096 
Q 1206 3584 1959 3584 
z
" transform="scale(0.015625)"/>
      <path id="DejaVuSans-64" d="M 2906 2969 
L 2906 4863 
L 3481 4863 
L 3481 0 
L 2906 0 
L 2906 525 
Q 2725 213 2448 61 
Q 2172 -91 1784 -91 
Q 1150 -91 751 415 
Q 353 922 353 1747 
Q 353 2572 751 3078 
Q 1150 3584 1784 3584 
Q 2172 3584 2448 3432 
Q 2725 3281 2906 2969 
z
M 947 1747 
Q 947 1113 1208 752 
Q 1469 391 1925 391 
Q 2381 391 2643 752 
Q 2906 1113 2906 1747 
Q 2906 2381 2643 2742 
Q 2381 3103 1925 3103 
Q 1469 3103 1208 2742 
Q 947 2381 947 1747 
z
" transform="scale(0.015625)"/>
      <path id="DejaVuSans-3a" d="M 750 794 
L 1409 794 
L 1409 0 
L 750 0 
L 750 794 
z
M 750 3309 
L 1409 3309 
L 1409 2516 
L 750 2516 
L 750 3309 
z
" transform="scale(0.015625)"/>
      <path id="DejaVuSans-73" d="M 2834 3397 
L 2834 2853 
Q 2591 2978 2328 3040 
Q 2066 3103 1784 3103 
Q 1356 3103 1142 2972 
Q 928 2841 928 2578 
Q 928 2378 1081 2264 
Q 1234 2150 1697 2047 
L 1894 2003 
Q 2506 1872 2764 1633 
Q 3022 1394 3022 966 
Q 3022 478 2636 193 
Q 2250 -91 1575 -91 
Q 1294 -91 989 -36 
Q 684 19 347 128 
L 347 722 
Q 666 556 975 473 
Q 1284 391 1588 391 
Q 1994 391 2212 530 
Q 2431 669 2431 922 
Q 2431 1156 2273 1281 
Q 2116 1406 1581 1522 
L 1381 1569 
Q 847 1681 609 1914 
Q 372 2147 372 2553 
Q 372 3047 722 3315 
Q 1072 3584 1716 3584 
Q 2034 3584 2315 3537 
Q 2597 3491 2834 3397 
z
" transform="scale(0.015625)"/>
      <path id="DejaVuSans-69" d="M 603 3500 
L 1178 3500 
L 1178 0 
L 603 0 
L 603 3500 
z
M 603 4863 
L 1178 4863 
L 1178 4134 
L 603 4134 
L 603 4863 
z
" transform="scale(0.015625)"/>
      <path id="DejaVuSans-39" d="M 703 97 
L 703 672 
Q 941 559 1184 500 
Q 1428 441 1663 441 
Q 2288 441 2617 861 
Q 2947 1281 2994 2138 
Q 2813 1869 2534 1725 
Q 2256 1581 1919 1581 
Q 1219 1581 811 2004 
Q 403 2428 403 3163 
Q 403 3881 828 4315 
Q 1253 4750 1959 4750 
Q 2769 4750 3195 4129 
Q 3622 3509 3622 2328 
Q 3622 1225 3098 567 
Q 2575 -91 1691 -91 
Q 1453 -91 1209 -44 
Q 966 3 703 97 
z
M 1959 2075 
Q 2384 2075 2632 2365 
Q 2881 2656 2881 3163 
Q 2881 3666 2632 3958 
Q 2384 4250 1959 4250 
Q 1534 4250 1286 3958 
Q 1038 3666 1038 3163 
Q 1038 2656 1286 2365 
Q 1534 2075 1959 2075 
z
" transform="scale(0.015625)"/>
      <path id="DejaVuSans-63" d="M 3122 3366 
L 3122 2828 
Q 2878 2963 2633 3030 
Q 2388 3097 2138 3097 
Q 1578 3097 1268 2742 
Q 959 2388 959 1747 
Q 959 1106 1268 751 
Q 1578 397 2138 397 
Q 2388 397 2633 464 
Q 2878 531 3122 666 
L 3122 134 
Q 2881 22 2623 -34 
Q 2366 -91 2075 -91 
Q 1284 -91 818 406 
Q 353 903 353 1747 
Q 353 2603 823 3093 
Q 1294 3584 2113 3584 
Q 2378 3584 2631 3529 
Q 2884 3475 3122 3366 
z
" transform="scale(0.015625)"/>
     </defs>
     <use xlink:href="#DejaVuSans-53"/>
     <use xlink:href="#DejaVuSans-75" x="63.476562"/>
     <use xlink:href="#DejaVuSans-70" x="126.855469"/>
     <use xlink:href="#DejaVuSans-70" x="190.332031"/>
     <use xlink:href="#DejaVuSans-6c" x="253.808594"/>
     <use xlink:href="#DejaVuSans-65" x="281.591797"/>
     <use xlink:href="#DejaVuSans-6d" x="343.115234"/>
     <use xlink:href="#DejaVuSans-65" x="440.527344"/>
     <use xlink:href="#DejaVuSans-6e" x="502.050781"/>
     <use xlink:href="#DejaVuSans-74" x="565.429688"/>
     <use xlink:href="#DejaVuSans-20" x="604.638672"/>
     <use xlink:href="#DejaVuSans-28" x="636.425781"/>
     <use xlink:href="#DejaVuSans-71" x="675.439453"/>
     <use xlink:href="#DejaVuSans-75" x="738.916016"/>
     <use xlink:href="#DejaVuSans-65" x="802.294922"/>
     <use xlink:href="#DejaVuSans-72" x="863.818359"/>
     <use xlink:href="#DejaVuSans-79" x="904.931641"/>
     <use xlink:href="#DejaVuSans-20" x="964.111328"/>
     <use xlink:href="#DejaVuSans-61" x="995.898438"/>
     <use xlink:href="#DejaVuSans-72" x="1057.177734"/>
     <use xlink:href="#DejaVuSans-6f" x="1096.041016"/>
     <use xlink:href="#DejaVuSans-75" x="1157.222656"/>
     <use xlink:href="#DejaVuSans-6e" x="1220.601562"/>
     <use xlink:href="#DejaVuSans-64" x="1283.980469"/>
     <use xlink:href="#DejaVuSans-29" x="1347.457031"/>
     <use xlink:href="#DejaVuSans-3a" x="1386.470703"/>
     <use xlink:href="#DejaVuSans-20" x="1420.162109"/>
     <use xlink:href="#DejaVuSans-36" x="1451.949219"/>
     <use xlink:href="#DejaVuSans-20" x="1515.572266"/>
     <use xlink:href="#DejaVuSans-65" x="1547.359375"/>
     <use xlink:href="#DejaVuSans-73" x="1608.882812"/>
     <use xlink:href="#DejaVuSans-74" x="1660.982422"/>
     <use xlink:href="#DejaVuSans-72" x="1700.191406"/>
     <use xlink:href="#DejaVuSans-65" x="1739.054688"/>
     <use xlink:href="#DejaVuSans-6c" x="1800.578125"/>
     <use xlink:href="#DejaVuSans-61" x="1828.361328"/>
     <use xlink:href="#DejaVuSans-73" x="1889.640625"/>
     <use xlink:href="#DejaVuSans-20" x="1941.740234"/>
     <use xlink:href="#DejaVuSans-65" x="1973.527344"/>
     <use xlink:href="#DejaVuSans-6d" x="2035.050781"/>
     <use xlink:href="#DejaVuSans-20" x="2132.462891"/>
     <use xlink:href="#DejaVuSans-75" x="2164.25"/>
     <use xlink:href="#DejaVuSans-6d" x="2227.628906"/>
     <use xlink:href="#DejaVuSans-20" x="2325.041016"/>
     <use xlink:href="#DejaVuSans-72" x="2356.828125"/>
     <use xlink:href="#DejaVuSans-61" x="2397.941406"/>
     <use xlink:href="#DejaVuSans-69" x="2459.220703"/>
     <use xlink:href="#DejaVuSans-6f" x="2487.003906"/>
     <use xlink:href="#DejaVuSans-20" x="2548.185547"/>
     <use xlink:href="#DejaVuSans-64" x="2579.972656"/>
     <use xlink:href="#DejaVuSans-65" x="2643.449219"/>
     <use xlink:href="#DejaVuSans-20" x="2704.972656"/>
     <use xlink:href="#DejaVuSans-31" x="2736.759766"/>
     <use xlink:href="#DejaVuSans-30" x="2800.382812"/>
     <use xlink:href="#DejaVuSans-31" x="2864.005859"/>
     <use xlink:href="#DejaVuSans-38" x="2927.628906"/>
     <use xlink:href="#DejaVuSans-2e" x="2991.251953"/>
     <use xlink:href="#DejaVuSans-33" x="3023.039062"/>
     <use xlink:href="#DejaVuSans-32" x="3086.662109"/>
     <use xlink:href="#DejaVuSans-39" x="3150.285156"/>
     <use xlink:href="#DejaVuSans-39" x="3213.908203"/>
     <use xlink:href="#DejaVuSans-20" x="3277.53125"/>
     <use xlink:href="#DejaVuSans-70" x="3309.318359"/>
     <use xlink:href="#DejaVuSans-61" x="3372.794922"/>
     <use xlink:href="#DejaVuSans-72" x="3434.074219"/>
     <use xlink:href="#DejaVuSans-73" x="3475.1875"/>
     <use xlink:href="#DejaVuSans-65" x="3527.287109"/>
     <use xlink:href="#DejaVuSans-63" x="3588.810547"/>
     <use xlink:href="#DejaVuSans-73" x="3643.791016"/>
    </g>
    <!-- 0.9820    148.9800 (mas) -->
    <g transform="translate(179.81332 16.84416) scale(0.075 -0.075)">
     <defs>
      <path id="DejaVuSans-2264" d="M 4684 3175 
L 1684 2309 
L 4684 1453 
L 4684 897 
L 678 2047 
L 678 2578 
L 4684 3725 
L 4684 3175 
z
M 678 531 
L 4684 531 
L 4684 0 
L 678 0 
L 678 531 
z
" transform="scale(0.015625)"/>
      <path id="DejaVuSans-3c0" d="M 231 3500 
L 3584 3500 
L 3584 2925 
L 3144 2925 
L 3144 775 
Q 3144 550 3220 451 
Q 3297 353 3469 353 
Q 3516 353 3584 361 
Q 3653 369 3675 372 
L 3675 -44 
Q 3566 -84 3450 -103 
Q 3334 -122 3219 -122 
Q 2844 -122 2700 83 
Q 2556 288 2556 838 
L 2556 2925 
L 1266 2925 
L 1266 0 
L 678 0 
L 678 2925 
L 231 2925 
L 231 3500 
z
" transform="scale(0.015625)"/>
     </defs>
     <use xlink:href="#DejaVuSans-30"/>
     <use xlink:href="#DejaVuSans-2e" x="63.623047"/>
     <use xlink:href="#DejaVuSans-39" x="95.410156"/>
     <use xlink:href="#DejaVuSans-38" x="159.033203"/>
     <use xlink:href="#DejaVuSans-32" x="222.65625"/>
     <use xlink:href="#DejaVuSans-30" x="286.279297"/>
     <use xlink:href="#DejaVuSans-20" x="349.902344"/>
     <use xlink:href="#DejaVuSans-2264" x="381.689453"/>
     <use xlink:href="#DejaVuSans-20" x="465.478516"/>
     <use xlink:href="#DejaVuSans-3c0" x="497.265625"/>
     <use xlink:href="#DejaVuSans-20" x="557.470703"/>
     <use xlink:href="#DejaVuSans-2264" x="589.257812"/>
     <use xlink:href="#DejaVuSans-20" x="673.046875"/>
     <use xlink:href="#DejaVuSans-31" x="704.833984"/>
     <use xlink:href="#DejaVuSans-34" x="768.457031"/>
     <use xlink:href="#DejaVuSans-38" x="832.080078"/>
     <use xlink:href="#DejaVuSans-2e" x="895.703125"/>
     <use xlink:href="#DejaVuSans-39" x="927.490234"/>
     <use xlink:href="#DejaVuSans-38" x="991.113281"/>
     <use xlink:href="#DejaVuSans-30" x="1054.736328"/>
     <use xlink:href="#DejaVuSans-30" x="1118.359375"/>
     <use xlink:href="#DejaVuSans-20" x="1181.982422"/>
     <use xlink:href="#DejaVuSans-28" x="1213.769531"/>
     <use xlink:href="#DejaVuSans-6d" x="1252.783203"/>
     <use xlink:href="#DejaVuSans-61" x="1350.195312"/>
     <use xlink:href="#DejaVuSans-73" x="1411.474609"/>
     <use xlink:href="#DejaVuSans-29" x="1463.574219"/>
    </g>
   </g>
   <g id="legend_1">
    <g id="patch_7">
     <path d="M 368.933281 91.506375 
L 413.22 91.506375 
Q 414.22 91.506375 414.22 90.506375 
L 414.22 46.972 
Q 414.22 45.972 413.22 45.972 
L 368.933281 45.972 
Q 367.933281 45.972 367.933281 46.972 
L 367.933281 90.506375 
Q 367.933281 91.506375 368.933281 91.506375 
z
" style="fill: #4d4d4d; opacity: 0.5; stroke: #4d4d4d; stroke-linejoin: miter"/>
    </g>
    <g id="patch_8">
     <path d="M 366.933281 89.506375 
L 411.22 89.506375 
Q 412.22 89.506375 412.22 88.506375 
L 412.22 44.972 
Q 412.22 43.972 411.22 43.972 
L 366.933281 43.972 
Q 365.933281 43.972 365.933281 44.972 
L 365.933281 88.506375 
Q 365.933281 89.506375 366.933281 89.506375 
z
" style="fill: #ffffff; stroke: #cccccc; stroke-linejoin: miter"/>
    </g>
    <g id="PathCollection_8">
     <path d="M 372.933281 50.958719 
C 373.596289 50.958719 374.232231 50.695303 374.701048 50.226486 
C 375.169865 49.757668 375.433281 49.121727 375.433281 48.458719 
C 375.433281 47.795711 375.169865 47.159769 374.701048 46.690952 
C 374.232231 46.222135 373.596289 45.958719 372.933281 45.958719 
C 372.270274 45.958719 371.634332 46.222135 371.165514 46.690952 
C 370.696697 47.159769 370.433281 47.795711 370.433281 48.458719 
C 370.433281 49.121727 370.696697 49.757668 371.165514 50.226486 
C 371.634332 50.695303 372.270274 50.958719 372.933281 50.958719 
z
" style="fill: #ff0000"/>
    </g>
    <g id="text_22">
     <!-- HD 4628 -->
     <g transform="translate(381.933281 49.771219) scale(0.05 -0.05)">
      <defs>
       <path id="DejaVuSans-48" d="M 628 4666 
L 1259 4666 
L 1259 2753 
L 3553 2753 
L 3553 4666 
L 4184 4666 
L 4184 0 
L 3553 0 
L 3553 2222 
L 1259 2222 
L 1259 0 
L 628 0 
L 628 4666 
z
" transform="scale(0.015625)"/>
       <path id="DejaVuSans-44" d="M 1259 4147 
L 1259 519 
L 2022 519 
Q 2988 519 3436 956 
Q 3884 1394 3884 2338 
Q 3884 3275 3436 3711 
Q 2988 4147 2022 4147 
L 1259 4147 
z
M 628 4666 
L 1925 4666 
Q 3281 4666 3915 4102 
Q 4550 3538 4550 2338 
Q 4550 1131 3912 565 
Q 3275 0 1925 0 
L 628 0 
L 628 4666 
z
" transform="scale(0.015625)"/>
      </defs>
      <use xlink:href="#DejaVuSans-48"/>
      <use xlink:href="#DejaVuSans-44" x="75.195312"/>
      <use xlink:href="#DejaVuSans-20" x="152.197266"/>
      <use xlink:href="#DejaVuSans-34" x="183.984375"/>
      <use xlink:href="#DejaVuSans-36" x="247.607422"/>
      <use xlink:href="#DejaVuSans-32" x="311.230469"/>
      <use xlink:href="#DejaVuSans-38" x="374.853516"/>
     </g>
    </g>
    <g id="PathCollection_9">
     <path d="M 372.933281 58.297781 
C 373.596289 58.297781 374.232231 58.034365 374.701048 57.565548 
C 375.169865 57.096731 375.433281 56.460789 375.433281 55.797781 
C 375.433281 55.134774 375.169865 54.498832 374.701048 54.030014 
C 374.232231 53.561197 373.596289 53.297781 372.933281 53.297781 
C 372.270274 53.297781 371.634332 53.561197 371.165514 54.030014 
C 370.696697 54.498832 370.433281 55.134774 370.433281 55.797781 
C 370.433281 56.460789 370.696697 57.096731 371.165514 57.565548 
C 371.634332 58.034365 372.270274 58.297781 372.933281 58.297781 
z
" style="fill: #ff00ff"/>
    </g>
    <g id="text_23">
     <!-- HD 16160 -->
     <g transform="translate(381.933281 57.110281) scale(0.05 -0.05)">
      <use xlink:href="#DejaVuSans-48"/>
      <use xlink:href="#DejaVuSans-44" x="75.195312"/>
      <use xlink:href="#DejaVuSans-20" x="152.197266"/>
      <use xlink:href="#DejaVuSans-31" x="183.984375"/>
      <use xlink:href="#DejaVuSans-36" x="247.607422"/>
      <use xlink:href="#DejaVuSans-31" x="311.230469"/>
      <use xlink:href="#DejaVuSans-36" x="374.853516"/>
      <use xlink:href="#DejaVuSans-30" x="438.476562"/>
     </g>
    </g>
    <g id="PathCollection_10">
     <path d="M 372.933281 65.636844 
C 373.596289 65.636844 374.232231 65.373428 374.701048 64.904611 
C 375.169865 64.435793 375.433281 63.799852 375.433281 63.136844 
C 375.433281 62.473836 375.169865 61.837894 374.701048 61.369077 
C 374.232231 60.90026 373.596289 60.636844 372.933281 60.636844 
C 372.270274 60.636844 371.634332 60.90026 371.165514 61.369077 
C 370.696697 61.837894 370.433281 62.473836 370.433281 63.136844 
C 370.433281 63.799852 370.696697 64.435793 371.165514 64.904611 
C 371.634332 65.373428 372.270274 65.636844 372.933281 65.636844 
z
" style="fill: #00ff00"/>
    </g>
    <g id="text_24">
     <!-- HD 32147 -->
     <g transform="translate(381.933281 64.449344) scale(0.05 -0.05)">
      <defs>
       <path id="DejaVuSans-37" d="M 525 4666 
L 3525 4666 
L 3525 4397 
L 1831 0 
L 1172 0 
L 2766 4134 
L 525 4134 
L 525 4666 
z
" transform="scale(0.015625)"/>
      </defs>
      <use xlink:href="#DejaVuSans-48"/>
      <use xlink:href="#DejaVuSans-44" x="75.195312"/>
      <use xlink:href="#DejaVuSans-20" x="152.197266"/>
      <use xlink:href="#DejaVuSans-33" x="183.984375"/>
      <use xlink:href="#DejaVuSans-32" x="247.607422"/>
      <use xlink:href="#DejaVuSans-31" x="311.230469"/>
      <use xlink:href="#DejaVuSans-34" x="374.853516"/>
      <use xlink:href="#DejaVuSans-37" x="438.476562"/>
     </g>
    </g>
    <g id="PathCollection_11">
     <path d="M 372.933281 72.975906 
C 373.596289 72.975906 374.232231 72.71249 374.701048 72.243673 
C 375.169865 71.774856 375.433281 71.138914 375.433281 70.475906 
C 375.433281 69.812898 375.169865 69.176957 374.701048 68.708139 
C 374.232231 68.239322 373.596289 67.975906 372.933281 67.975906 
C 372.270274 67.975906 371.634332 68.239322 371.165514 68.708139 
C 370.696697 69.176957 370.433281 69.812898 370.433281 70.475906 
C 370.433281 71.138914 370.696697 71.774856 371.165514 72.243673 
C 371.634332 72.71249 372.270274 72.975906 372.933281 72.975906 
z
" style="fill: #00bfff"/>
    </g>
    <g id="text_25">
     <!-- HD 146233 -->
     <g transform="translate(381.933281 71.788406) scale(0.05 -0.05)">
      <use xlink:href="#DejaVuSans-48"/>
      <use xlink:href="#DejaVuSans-44" x="75.195312"/>
      <use xlink:href="#DejaVuSans-20" x="152.197266"/>
      <use xlink:href="#DejaVuSans-31" x="183.984375"/>
      <use xlink:href="#DejaVuSans-34" x="247.607422"/>
      <use xlink:href="#DejaVuSans-36" x="311.230469"/>
      <use xlink:href="#DejaVuSans-32" x="374.853516"/>
      <use xlink:href="#DejaVuSans-33" x="438.476562"/>
      <use xlink:href="#DejaVuSans-33" x="502.099609"/>
     </g>
    </g>
    <g id="PathCollection_12">
     <path d="M 372.933281 80.314969 
C 373.596289 80.314969 374.232231 80.051553 374.701048 79.582736 
C 375.169865 79.113918 375.433281 78.477976 375.433281 77.814969 
C 375.433281 77.151961 375.169865 76.516019 374.701048 76.047202 
C 374.232231 75.578385 373.596289 75.314969 372.933281 75.314969 
C 372.270274 75.314969 371.634332 75.578385 371.165514 76.047202 
C 370.696697 76.516019 370.433281 77.151961 370.433281 77.814969 
C 370.433281 78.477976 370.696697 79.113918 371.165514 79.582736 
C 371.634332 80.051553 372.270274 80.314969 372.933281 80.314969 
z
" style="fill: #ffd700"/>
    </g>
    <g id="text_26">
     <!-- HD 191408 -->
     <g transform="translate(381.933281 79.127469) scale(0.05 -0.05)">
      <use xlink:href="#DejaVuSans-48"/>
      <use xlink:href="#DejaVuSans-44" x="75.195312"/>
      <use xlink:href="#DejaVuSans-20" x="152.197266"/>
      <use xlink:href="#DejaVuSans-31" x="183.984375"/>
      <use xlink:href="#DejaVuSans-39" x="247.607422"/>
      <use xlink:href="#DejaVuSans-31" x="311.230469"/>
      <use xlink:href="#DejaVuSans-34" x="374.853516"/>
      <use xlink:href="#DejaVuSans-30" x="438.476562"/>
      <use xlink:href="#DejaVuSans-38" x="502.099609"/>
     </g>
    </g>
    <g id="PathCollection_13">
     <path d="M 372.933281 87.654031 
C 373.596289 87.654031 374.232231 87.390615 374.701048 86.921798 
C 375.169865 86.452981 375.433281 85.817039 375.433281 85.154031 
C 375.433281 84.491023 375.169865 83.855082 374.701048 83.386264 
C 374.232231 82.917447 373.596289 82.654031 372.933281 82.654031 
C 372.270274 82.654031 371.634332 82.917447 371.165514 83.386264 
C 370.696697 83.855082 370.433281 84.491023 370.433281 85.154031 
C 370.433281 85.817039 370.696697 86.452981 371.165514 86.921798 
C 371.634332 87.390615 372.270274 87.654031 372.933281 87.654031 
z
" style="fill: #d2691e"/>
    </g>
    <g id="text_27">
     <!-- HD 219134 -->
     <g transform="translate(381.933281 86.466531) scale(0.05 -0.05)">
      <use xlink:href="#DejaVuSans-48"/>
      <use xlink:href="#DejaVuSans-44" x="75.195312"/>
      <use xlink:href="#DejaVuSans-20" x="152.197266"/>
      <use xlink:href="#DejaVuSans-32" x="183.984375"/>
      <use xlink:href="#DejaVuSans-31" x="247.607422"/>
      <use xlink:href="#DejaVuSans-39" x="311.230469"/>
      <use xlink:href="#DejaVuSans-31" x="374.853516"/>
      <use xlink:href="#DejaVuSans-33" x="438.476562"/>
      <use xlink:href="#DejaVuSans-34" x="502.099609"/>
     </g>
    </g>
   </g>
  </g>
 </g>
 <defs>
  <clipPath id="pb149602d54">
   <rect x="57.6" y="41.472" width="357.12" height="266.112"/>
  </clipPath>
 </defs>
</svg>
